<svg width="162" height="22" viewBox="0 0 162 22" fill="none" xmlns="http://www.w3.org/2000/svg">
	<path
		d="M7.892 21.26C6.78267 21.26 5.74267 21.0953 4.772 20.766C3.81867 20.4367 2.98667 19.9773 2.276 19.388C1.56533 18.7813 1.03667 18.0793 0.69 17.282C0.534 16.9873 0.525333 16.71 0.664 16.45C0.82 16.19 1.07133 16.0167 1.418 15.93C1.678 15.8607 1.938 15.8953 2.198 16.034C2.458 16.1553 2.64867 16.3547 2.77 16.632C3.03 17.1173 3.40267 17.5593 3.888 17.958C4.39067 18.3393 4.98 18.6427 5.656 18.868C6.34933 19.076 7.09467 19.18 7.892 19.18C8.79333 19.18 9.59933 19.0327 10.31 18.738C11.0207 18.4433 11.584 18.0187 12 17.464C12.416 16.9093 12.624 16.2333 12.624 15.436C12.624 14.4307 12.2427 13.5553 11.48 12.81C10.7173 12.0473 9.504 11.5707 7.84 11.38C5.77733 11.1373 4.15667 10.5047 2.978 9.482C1.81667 8.45933 1.236 7.194 1.236 5.686C1.236 4.61133 1.53067 3.684 2.12 2.904C2.70933 2.10667 3.51533 1.5 4.538 1.084C5.56067 0.650666 6.722 0.434 8.022 0.434C9.01 0.434 9.894 0.589999 10.674 0.901998C11.454 1.19667 12.13 1.59533 12.702 2.098C13.2913 2.60067 13.7767 3.164 14.158 3.788C14.366 4.1 14.4353 4.40333 14.366 4.698C14.314 4.97533 14.158 5.192 13.898 5.348C13.6207 5.48667 13.326 5.51267 13.014 5.426C12.7193 5.322 12.494 5.13133 12.338 4.854C12.078 4.438 11.7487 4.05667 11.35 3.71C10.9687 3.346 10.5007 3.06 9.946 2.852C9.39133 2.644 8.73267 2.53133 7.97 2.514C6.63533 2.514 5.54333 2.79133 4.694 3.346C3.84467 3.90067 3.42 4.724 3.42 5.816C3.42 6.37067 3.56733 6.89933 3.862 7.402C4.174 7.88733 4.68533 8.30333 5.396 8.65C6.124 8.99667 7.112 9.25667 8.36 9.43C10.5093 9.70733 12.1213 10.3573 13.196 11.38C14.2707 12.4027 14.808 13.746 14.808 15.41C14.808 16.3633 14.626 17.204 14.262 17.932C13.9153 18.66 13.4213 19.2753 12.78 19.778C12.1387 20.2633 11.3933 20.636 10.544 20.896C9.712 21.1387 8.828 21.26 7.892 21.26ZM18.004 21C17.5706 21 17.25 20.8267 17.042 20.48C16.8513 20.116 16.834 19.752 16.99 19.388L24.53 1.448C24.7553 0.945333 25.1193 0.694 25.622 0.694C26.1246 0.694 26.4713 0.945333 26.662 1.448L34.228 19.414C34.4013 19.7953 34.3753 20.1593 34.15 20.506C33.942 20.8353 33.6386 21 33.24 21C33.0146 21 32.8066 20.9393 32.616 20.818C32.4253 20.6967 32.278 20.532 32.174 20.324L25.258 3.372H26.038L19.018 20.324C18.9313 20.5493 18.7926 20.7227 18.602 20.844C18.4113 20.948 18.212 21 18.004 21ZM19.616 16.268L20.474 14.37H30.9L31.784 16.268H19.616ZM38.4172 21C38.1052 21 37.8366 20.896 37.6112 20.688C37.4032 20.48 37.2992 20.2113 37.2992 19.882V1.812C37.2992 1.5 37.4032 1.24 37.6112 1.032C37.8366 0.806666 38.1052 0.694 38.4172 0.694C38.7292 0.694 38.9892 0.806666 39.1972 1.032C39.4226 1.24 39.5352 1.5 39.5352 1.812V18.842H49.4672C49.7792 18.842 50.0392 18.946 50.2472 19.154C50.4726 19.362 50.5852 19.6133 50.5852 19.908C50.5852 20.22 50.4726 20.48 50.2472 20.688C50.0392 20.896 49.7792 21 49.4672 21H38.4172ZM62.0445 21.416C60.4325 21.416 59.0025 21.1127 57.7545 20.506C56.5238 19.8993 55.5618 19.0587 54.8685 17.984C54.1752 16.892 53.8285 15.6527 53.8285 14.266V1.812C53.8285 1.48267 53.9325 1.214 54.1405 1.006C54.3485 0.797999 54.6172 0.694 54.9465 0.694C55.2758 0.694 55.5445 0.797999 55.7525 1.006C55.9605 1.214 56.0645 1.48267 56.0645 1.812V14.266C56.0645 15.254 56.3158 16.1293 56.8185 16.892C57.3212 17.6547 58.0232 18.2527 58.9245 18.686C59.8432 19.1193 60.8832 19.336 62.0445 19.336C63.1885 19.336 64.1938 19.1193 65.0605 18.686C65.9445 18.2527 66.6378 17.6547 67.1405 16.892C67.6432 16.1293 67.8945 15.254 67.8945 14.266V1.812C67.8945 1.48267 67.9985 1.214 68.2065 1.006C68.4318 0.797999 68.7005 0.694 69.0125 0.694C69.3592 0.694 69.6279 0.797999 69.8185 1.006C70.0265 1.214 70.1305 1.48267 70.1305 1.812V14.266C70.1305 15.6527 69.7839 16.892 69.0905 17.984C68.3972 19.0587 67.4438 19.8993 66.2305 20.506C65.0172 21.1127 63.6218 21.416 62.0445 21.416ZM94.6837 21C94.2503 21 93.9297 20.8267 93.7217 20.48C93.531 20.116 93.5137 19.752 93.6697 19.388L101.21 1.448C101.435 0.945333 101.799 0.694 102.302 0.694C102.804 0.694 103.151 0.945333 103.342 1.448L110.908 19.414C111.081 19.7953 111.055 20.1593 110.83 20.506C110.622 20.8353 110.318 21 109.92 21C109.694 21 109.486 20.9393 109.296 20.818C109.105 20.6967 108.958 20.532 108.854 20.324L101.938 3.372H102.718L95.6977 20.324C95.611 20.5493 95.4723 20.7227 95.2817 20.844C95.091 20.948 94.8917 21 94.6837 21ZM96.2957 16.268L97.1537 14.37H107.58L108.464 16.268H96.2957ZM115.097 21C114.768 21 114.499 20.896 114.291 20.688C114.083 20.48 113.979 20.2113 113.979 19.882V1.812C113.979 1.48267 114.083 1.214 114.291 1.006C114.499 0.797999 114.768 0.694 115.097 0.694H119.907C121.172 0.694 122.299 0.962666 123.287 1.5C124.292 2.03733 125.072 2.78267 125.627 3.736C126.199 4.672 126.485 5.764 126.485 7.012C126.485 8.19067 126.199 9.23933 125.627 10.158C125.072 11.0767 124.292 11.796 123.287 12.316C122.299 12.836 121.172 13.096 119.907 13.096H116.215V19.882C116.215 20.2113 116.111 20.48 115.903 20.688C115.695 20.896 115.426 21 115.097 21ZM125.939 21C125.714 21 125.523 20.9567 125.367 20.87C125.211 20.766 125.081 20.6187 124.977 20.428L120.063 12.602L122.273 12.03L126.823 19.284C127.1 19.7173 127.144 20.116 126.953 20.48C126.78 20.8267 126.442 21 125.939 21ZM116.215 10.964H119.907C120.756 10.964 121.51 10.7993 122.169 10.47C122.845 10.1233 123.374 9.65533 123.755 9.066C124.136 8.45933 124.327 7.77467 124.327 7.012C124.327 6.18 124.136 5.452 123.755 4.828C123.374 4.18667 122.845 3.69267 122.169 3.346C121.51 2.982 120.756 2.8 119.907 2.8H116.215V10.964ZM136.081 21C135.769 21 135.5 20.896 135.275 20.688C135.067 20.4627 134.963 20.194 134.963 19.882V0.694H137.199V19.882C137.199 20.194 137.095 20.4627 136.887 20.688C136.679 20.896 136.41 21 136.081 21ZM128.983 2.748C128.671 2.748 128.419 2.65267 128.229 2.462C128.038 2.254 127.943 2.01133 127.943 1.734C127.943 1.422 128.038 1.17067 128.229 0.979999C128.419 0.789333 128.671 0.694 128.983 0.694H143.205C143.517 0.694 143.768 0.789333 143.959 0.979999C144.149 1.17067 144.245 1.422 144.245 1.734C144.245 2.01133 144.149 2.254 143.959 2.462C143.768 2.65267 143.517 2.748 143.205 2.748H128.983ZM148.359 21C148.029 21 147.761 20.896 147.553 20.688C147.345 20.48 147.241 20.2113 147.241 19.882V1.812C147.241 1.48267 147.345 1.214 147.553 1.006C147.761 0.797999 148.029 0.694 148.359 0.694H160.423C160.735 0.694 160.995 0.797999 161.203 1.006C161.411 1.19667 161.515 1.448 161.515 1.76C161.515 2.05467 161.411 2.306 161.203 2.514C160.995 2.70467 160.735 2.8 160.423 2.8H149.477V9.716H157.407C157.736 9.716 158.005 9.82 158.213 10.028C158.421 10.236 158.525 10.4873 158.525 10.782C158.525 11.094 158.421 11.354 158.213 11.562C158.005 11.7527 157.736 11.848 157.407 11.848H149.477V18.894H160.423C160.735 18.894 160.995 18.998 161.203 19.206C161.411 19.3967 161.515 19.6393 161.515 19.934C161.515 20.246 161.411 20.506 161.203 20.714C160.995 20.9047 160.735 21 160.423 21H148.359Z"
		fill="white" />
	<path
		d="M76.6864 21C76.305 21 75.9844 20.87 75.7244 20.61C75.4644 20.35 75.3344 20.0293 75.3344 19.648V2.046C75.3344 1.64733 75.4644 1.32667 75.7244 1.084C75.9844 0.823999 76.305 0.694 76.6864 0.694H81.3924C82.883 0.694 84.235 0.945333 85.4484 1.448C86.679 1.93333 87.745 2.63533 88.6464 3.554C89.5477 4.45533 90.241 5.52133 90.7264 6.752C91.2117 7.98267 91.4544 9.34333 91.4544 10.834C91.4544 12.3247 91.2117 13.694 90.7264 14.942C90.241 16.1727 89.5477 17.2473 88.6464 18.166C87.745 19.0673 86.679 19.7693 85.4484 20.272C84.235 20.7573 82.883 21 81.3924 21H76.6864ZM78.0384 18.608H81.3924C82.8484 18.608 84.131 18.2787 85.2404 17.62C86.367 16.944 87.251 16.0253 87.8924 14.864C88.5337 13.6853 88.8544 12.342 88.8544 10.834C88.8544 9.30867 88.5337 7.96533 87.8924 6.804C87.251 5.64267 86.367 4.73267 85.2404 4.074C84.131 3.41533 82.8484 3.086 81.3924 3.086H78.0384V18.608Z"
		fill="#3DC44B" />
</svg>