<?xml version="1.0" encoding="UTF-8" standalone="no"?>
<svg xmlns:dc="http://purl.org/dc/elements/1.1/" xmlns:cc="http://creativecommons.org/ns#"
	xmlns:rdf="http://www.w3.org/1999/02/22-rdf-syntax-ns#" xmlns:svg="http://www.w3.org/2000/svg"
	xmlns="http://www.w3.org/2000/svg" xmlns:sodipodi="http://sodipodi.sourceforge.net/DTD/sodipodi-0.dtd" width="24"
	height="24" viewBox="0 0 24 24" id="svg4" sodipodi:docname="account-circle-outline.svg">
	<metadata id="metadata10">
		<rdf:RDF>
			<cc:Work rdf:about="">
				<dc:format>image/svg+xml</dc:format>
				<dc:type rdf:resource="http://purl.org/dc/dcmitype/StillImage" />
			</cc:Work>
		</rdf:RDF>
	</metadata>
	<path
		style="opacity:1;fill:#1e293b;fill-opacity:1"
		d="M12,2A10,10 0 0,0 2,12A10,10 0 0,0 12,22A10,10 0 0,0 22,12A10,10 0 0,0 12,2M7.07,18.28C7.5,17.38 10.12,16.5 12,16.5C13.88,16.5 16.5,17.38 16.93,18.28C15.57,19.36 13.86,20 12,20C10.14,20 8.43,19.36 7.07,18.28M18.36,16.83C16.93,15.09 13.46,14.5 12,14.5C10.54,14.5 7.07,15.09 5.64,16.83C4.62,15.5 4,13.82 4,12C4,7.59 7.59,4 12,4C16.41,4 20,7.59 20,12C20,13.82 19.38,15.5 18.36,16.83M12,6C10.06,6 8.5,7.56 8.5,9.5C8.5,11.44 10.06,13 12,13C13.94,13 15.5,11.44 15.5,9.5C15.5,7.56 13.94,6 12,6M12,11A1.5,1.5 0 0,1 10.5,9.5A1.5,1.5 0 0,1 12,8A1.5,1.5 0 0,1 13.5,9.5A1.5,1.5 0 0,1 12,11Z"
		id="path2" />
	<path
		style="opacity:1;fill:#1e293b;fill-opacity:1;stroke:#1e293b;stroke-width:0.03595458;stroke-miterlimit:4;stroke-dasharray:none;stroke-opacity:1"
		d="m 11.99061,6.0451075 c -0.983906,-0.054147 -1.933637,0.4213186 -2.5774235,1.1488613 -1.0487676,1.10108 -1.176843,2.9145842 -0.3404769,4.1744652 0.6699461,1.060203 1.9415114,1.726355 3.1999894,1.587467 1.5697,-0.08454 3.006476,-1.402543 3.160118,-2.9783407 0.05349,-0.7329657 0.01595,-1.5087115 -0.381643,-2.151156 C 14.456161,6.749552 13.237026,5.9797912 11.99061,6.0451075 Z"
		id="path12" />
	<path
		style="opacity:1;fill:#1e293b;fill-opacity:1;stroke:#1e293b;stroke-width:0.03595458;stroke-miterlimit:4;stroke-dasharray:none;stroke-opacity:1"
		d="m 11.847845,14.532636 c -1.454763,0.01455 -2.8940516,0.377405 -4.2300702,0.940226 -0.9797526,0.433389 -1.9969075,1.068401 -2.3928758,2.117248 -0.3093021,0.873433 0.060501,1.899118 0.8277279,2.407201 1.5525828,1.146836 3.4274407,1.86448 5.3604101,1.964599 0.23388,0.01777 0.227092,0.01626 0.358211,0.02495 1.940913,0.01748 3.895442,-0.49849 5.531441,-1.555634 0.622901,-0.373673 1.279458,-0.834673 1.482071,-1.574461 0.257924,-0.818077 -0.07987,-1.714242 -0.690578,-2.283915 -0.709858,-0.694582 -1.645177,-1.101989 -2.56649,-1.435394 -1.190607,-0.374442 -2.42424,-0.650123 -3.679847,-0.604818 z"
		id="path14" />
</svg>
