<svg width="40" height="40" viewBox="0 0 40 40" fill="none" xmlns="http://www.w3.org/2000/svg">
	<mask id="path-1-inside-1_104_1047" fill="white">
		<path
			d="M4.85561 14.2373C8.48408 13.9471 10.0092 14.4465 10.9683 17.6271C7.67242 17.7191 5.68748 17.1175 4.85561 14.2373Z" />
		<path
			d="M38.4981 40C40.566 33.0179 40.4342 28.9988 38.4981 21.6949C37.2268 18.4986 35.9017 15.8353 34.3361 13.3129C31.7967 9.38998 28.1284 4.94518 23.5844 0L25.3185 6.1017C27.5781 7.87287 28.6286 9.22923 30.1742 12.2034C32.2749 16.5918 32.486 19.2578 32.602 24.0678C32.3908 27.503 29.7269 28.0093 23.5844 28.1356C18.0738 28.0192 15.3345 27.7113 14.9137 24.0678C14.2271 22.8769 15.2611 17.5557 16.6237 13.8983C16.8557 13.2756 17.0973 12.7011 17.3415 12.2034C17.4294 10.9139 20.3534 6.8509 21.8503 6.1017C22.3193 4.18079 23.3228 0.271186 23.5844 0C17.8008 5.97598 14.6262 10.3185 10.9683 17.6271C10.3377 18.887 9.69273 20.2351 9.01757 21.6949C7.29477 27.3658 6.95296 31.0893 8.15659 36.6102C8.38671 37.6657 8.67332 38.7869 9.01757 40H13.1795C12.7923 38.1096 12.5906 36.5402 12.5982 35.2542C12.6098 33.2672 13.1212 31.9572 14.22 31.1864C15.314 30.0562 16.7864 29.6239 23.5844 29.8305C29.9252 29.5952 32.3723 29.8785 33.2956 31.1864C36.3208 34.6831 34.5978 36.907 34.3361 40H38.4981Z" />
		<path
			d="M0 32.8814C5.48156 32.0876 6.64406 33.5153 8.15659 36.6102C3.30641 37.2367 1.44837 36.5122 0 32.8814Z" />
		<path
			d="M12.5982 35.2542C15.0284 31.9041 16.6516 31.0711 20.1161 31.8644C18.7075 35.8365 16.5598 35.7088 12.5982 35.2542Z" />
		<path
			d="M34.3361 13.3129C35.6087 11.5086 36.5217 10.8406 38.8449 10.8475C38.1915 13.0756 37.2242 13.6381 34.3361 13.3129Z" />
		<path
			d="M34.3361 13.3129C33.8387 12.0652 33.4279 10.6773 34.6829 9.83051C35.8224 10.7847 35.4851 11.63 34.3361 13.3129Z" />
		<path
			d="M16.6237 13.8983C18.3331 11.6615 19.5815 11.0385 22.5439 11.5254C21.4376 14.0365 20.2784 14.7358 16.6237 13.8983Z" />
	</mask>
	<path
		d="M4.85561 14.2373C8.48408 13.9471 10.0092 14.4465 10.9683 17.6271C7.67242 17.7191 5.68748 17.1175 4.85561 14.2373Z"
		fill="#3DC44B" />
	<path
		d="M38.4981 40C40.566 33.0179 40.4342 28.9988 38.4981 21.6949C37.2268 18.4986 35.9017 15.8353 34.3361 13.3129C31.7967 9.38998 28.1284 4.94518 23.5844 0L25.3185 6.1017C27.5781 7.87287 28.6286 9.22923 30.1742 12.2034C32.2749 16.5918 32.486 19.2578 32.602 24.0678C32.3908 27.503 29.7269 28.0093 23.5844 28.1356C18.0738 28.0192 15.3345 27.7113 14.9137 24.0678C14.2271 22.8769 15.2611 17.5557 16.6237 13.8983C16.8557 13.2756 17.0973 12.7011 17.3415 12.2034C17.4294 10.9139 20.3534 6.8509 21.8503 6.1017C22.3193 4.18079 23.3228 0.271186 23.5844 0C17.8008 5.97598 14.6262 10.3185 10.9683 17.6271C10.3377 18.887 9.69273 20.2351 9.01757 21.6949C7.29477 27.3658 6.95296 31.0893 8.15659 36.6102C8.38671 37.6657 8.67332 38.7869 9.01757 40H13.1795C12.7923 38.1096 12.5906 36.5402 12.5982 35.2542C12.6098 33.2672 13.1212 31.9572 14.22 31.1864C15.314 30.0562 16.7864 29.6239 23.5844 29.8305C29.9252 29.5952 32.3723 29.8785 33.2956 31.1864C36.3208 34.6831 34.5978 36.907 34.3361 40H38.4981Z"
		fill="#3DC44B" />
	<path d="M0 32.8814C5.48156 32.0876 6.64406 33.5153 8.15659 36.6102C3.30641 37.2367 1.44837 36.5122 0 32.8814Z"
		fill="#3DC44B" />
	<path
		d="M12.5982 35.2542C15.0284 31.9041 16.6516 31.0711 20.1161 31.8644C18.7075 35.8365 16.5598 35.7088 12.5982 35.2542Z"
		fill="#3DC44B" />
	<path
		d="M34.3361 13.3129C35.6087 11.5086 36.5217 10.8406 38.8449 10.8475C38.1915 13.0756 37.2242 13.6381 34.3361 13.3129Z"
		fill="#3DC44B" />
	<path
		d="M34.3361 13.3129C33.8387 12.0652 33.4279 10.6773 34.6829 9.83051C35.8224 10.7847 35.4851 11.63 34.3361 13.3129Z"
		fill="#3DC44B" />
	<path
		d="M16.6237 13.8983C18.3331 11.6615 19.5815 11.0385 22.5439 11.5254C21.4376 14.0365 20.2784 14.7358 16.6237 13.8983Z"
		fill="#3DC44B" />
	<path
		d="M34.3361 13.3129L34.2936 13.3392L34.2941 13.34L34.3361 13.3129ZM34.2941 13.34C34.3148 13.372 34.328 13.3921 34.3354 13.4033C34.3372 13.4061 34.3388 13.4084 34.3401 13.4103C34.3412 13.412 34.3424 13.4138 34.3435 13.4153C34.3438 13.4157 34.3443 13.4163 34.3448 13.4169C34.3451 13.4174 34.3463 13.4188 34.3479 13.4205C34.3485 13.4212 34.3506 13.4234 34.3536 13.4258C34.3553 13.427 34.36 13.43 34.363 13.4315C34.3684 13.4338 34.3847 13.4364 34.3953 13.4352C34.4092 13.4298 34.4278 13.4112 34.4324 13.4005C34.4338 13.3941 34.4344 13.3839 34.4341 13.3802C34.4337 13.3779 34.4329 13.3742 34.4325 13.3727C34.4322 13.3716 34.4316 13.3698 34.4313 13.369C34.4303 13.3663 34.4293 13.3641 34.429 13.3637C34.4286 13.3629 34.4282 13.3622 34.428 13.3617C34.4275 13.3608 34.427 13.3599 34.4266 13.3593C34.4237 13.3543 34.417 13.3434 34.409 13.3306C34.4007 13.3174 34.3905 13.3012 34.3803 13.2851C34.3701 13.269 34.3598 13.2529 34.3514 13.2398C34.3432 13.227 34.3362 13.2163 34.333 13.2115C34.3325 13.2109 34.3319 13.2101 34.3313 13.2092C34.331 13.2088 34.3306 13.2082 34.33 13.2075C34.3297 13.2071 34.3284 13.2054 34.3265 13.2034C34.3259 13.2029 34.3247 13.2017 34.324 13.201C34.323 13.2001 34.3204 13.1981 34.3188 13.1969C34.3162 13.1952 34.3088 13.1916 34.3038 13.1899C34.2944 13.1882 34.2709 13.192 34.2585 13.1996C34.2498 13.2089 34.2416 13.2272 34.2405 13.2346C34.2404 13.2387 34.2409 13.2453 34.2413 13.2478C34.2422 13.2521 34.2434 13.2553 34.2438 13.2561C34.2447 13.2585 34.2456 13.2603 34.2458 13.2608C34.2462 13.2615 34.2466 13.2622 34.2468 13.2627C34.2477 13.2643 34.2488 13.2662 34.2498 13.2679C34.2509 13.2699 34.2524 13.2722 34.2541 13.2751C34.261 13.2865 34.2736 13.307 34.2936 13.3392L34.3786 13.2865C34.3586 13.2542 34.3463 13.2342 34.3397 13.2233C34.338 13.2206 34.3368 13.2186 34.3359 13.2171C34.3349 13.2154 34.3347 13.2149 34.3348 13.2151C34.3348 13.2152 34.335 13.2156 34.3353 13.2161C34.3354 13.2164 34.3362 13.218 34.3371 13.2202C34.3374 13.221 34.3386 13.2242 34.3395 13.2284C34.3399 13.2309 34.3404 13.2375 34.3403 13.2416C34.3392 13.2489 34.331 13.2672 34.3224 13.2765C34.31 13.2841 34.2864 13.2879 34.277 13.2862C34.272 13.2846 34.2646 13.2809 34.2621 13.2792C34.2605 13.2781 34.2579 13.2761 34.2569 13.2752C34.2562 13.2745 34.255 13.2734 34.2545 13.2728C34.2527 13.271 34.2515 13.2694 34.2513 13.2692C34.2509 13.2687 34.2506 13.2683 34.2505 13.2682C34.2504 13.2679 34.2504 13.2679 34.2506 13.2682C34.2527 13.2714 34.2587 13.2806 34.2673 13.2938C34.2755 13.3067 34.2857 13.3227 34.2958 13.3387C34.306 13.3547 34.3161 13.3707 34.3242 13.3836C34.3325 13.397 34.3383 13.4063 34.3402 13.4095C34.3404 13.4099 34.3403 13.4098 34.3402 13.4096C34.3401 13.4094 34.3399 13.409 34.3396 13.4084C34.3395 13.4082 34.3385 13.4062 34.3375 13.4036C34.3372 13.4028 34.3366 13.401 34.3363 13.4C34.3359 13.3985 34.3352 13.3948 34.3348 13.3926C34.3345 13.3889 34.335 13.3787 34.3365 13.3722C34.341 13.3615 34.3597 13.343 34.3735 13.3376C34.3841 13.3364 34.4004 13.339 34.4059 13.3412C34.4089 13.3428 34.4135 13.3457 34.4152 13.347C34.4182 13.3493 34.4202 13.3515 34.4208 13.3521C34.4223 13.3537 34.4233 13.355 34.4235 13.3552C34.4238 13.3557 34.4241 13.356 34.4241 13.3561C34.4242 13.3562 34.4239 13.3558 34.4228 13.3541C34.4218 13.3527 34.4205 13.3507 34.4187 13.348C34.4116 13.3374 34.3988 13.3176 34.3781 13.2857L34.2941 13.34ZM9.01757 40L8.92137 40.0273L8.942 40.1H9.01757V40ZM9.01757 21.6949L8.92593 21.6525L8.92189 21.6658L9.01757 21.6949ZM23.5844 0L23.658 -0.0676605L23.5863 -0.145743L23.5125 -0.0695445L23.5844 0ZM38.4981 21.6949L38.5954 21.6691L38.591 21.658L38.4981 21.6949ZM38.4981 40V40.1H38.5727L38.5939 40.0284L38.4981 40ZM13.1795 40V40.1H13.3021L13.2775 39.9799L13.1795 40ZM14.22 31.1864L14.2774 31.2683L14.2852 31.2628L14.2919 31.256L14.22 31.1864ZM23.5844 29.8305L23.5814 29.9307L23.5881 29.9304L23.5844 29.8305ZM33.2956 31.1864L33.2135 31.2444L33.22 31.2519L33.2956 31.1864ZM34.3361 40L34.2365 39.9916L34.2273 40.1H34.3361V40ZM21.8503 6.1017L21.895 6.19112L21.9364 6.1704L21.9474 6.12542L21.8503 6.1017ZM17.3415 12.2034L17.4312 12.2474L17.4399 12.2298L17.4412 12.2102L17.3415 12.2034ZM14.9137 24.0678L15.013 24.0563L15.0106 24.0358L15.0003 24.0178L14.9137 24.0678ZM23.5844 28.1356L23.5823 28.2357L23.5865 28.2356L23.5844 28.1356ZM32.602 24.0678L32.7021 24.074L32.7019 24.0654L32.602 24.0678ZM30.1742 12.2034L30.2644 12.1602L30.2629 12.1573L30.1742 12.2034ZM25.3185 6.1017L25.2224 6.12903L25.2312 6.16033L25.2569 6.1804L25.3185 6.1017ZM22.5439 11.5254L22.6354 11.5657L22.6874 11.4477L22.5601 11.4267L22.5439 11.5254ZM4.85561 14.2373L4.84764 14.1376L4.72555 14.1474L4.75954 14.265L4.85561 14.2373ZM0 32.8814L-0.0143307 32.7824L-0.139889 32.8006L-0.0928828 32.9184L0 32.8814ZM20.1161 31.8644L20.2104 31.8978L20.2479 31.792L20.1384 31.7669L20.1161 31.8644ZM34.6829 9.83051L34.7471 9.75384L34.6894 9.7055L34.627 9.74761L34.6829 9.83051ZM38.8449 10.8475L38.9408 10.8756L38.9783 10.7479L38.8452 10.7475L38.8449 10.8475ZM38.4014 21.7205C39.3686 25.3691 39.8832 28.1905 39.8996 30.9687C39.916 33.7462 39.4344 36.4863 38.4022 39.9716L38.5939 40.0284C39.6296 36.5316 40.1161 33.7711 40.0996 30.9675C40.083 28.1647 39.5637 25.3246 38.5947 21.6693L38.4014 21.7205ZM9.01757 40.1H13.1795V39.9H9.01757V40.1ZM14.2919 31.256C14.8216 30.7087 15.4425 30.3265 16.7795 30.1058C18.1235 29.884 20.1823 29.8272 23.5814 29.9305L23.5874 29.7306C20.1885 29.6272 18.1121 29.6832 16.7469 29.9085C15.3747 30.1349 14.7124 30.534 14.1482 31.1169L14.2919 31.256ZM23.5881 29.9304C26.7587 29.8128 28.9479 29.8252 30.4582 30.0288C31.9703 30.2327 32.777 30.6252 33.2139 31.2441L33.3773 31.1288C32.8909 30.4397 32.0124 30.0366 30.4849 29.8306C28.9557 29.6245 26.7509 29.6129 23.5807 29.7306L23.5881 29.9304ZM33.22 31.2519C34.7162 32.9813 35.0322 34.386 34.9486 35.7384C34.9065 36.4195 34.7629 37.0893 34.6116 37.7886C34.4608 38.4857 34.3025 39.2109 34.2365 39.9916L34.4358 40.0084C34.5006 39.2426 34.6558 38.5299 34.8071 37.8309C34.9579 37.134 35.1051 36.4494 35.1483 35.7508C35.2352 34.3438 34.9001 32.8882 33.3712 31.121L33.22 31.2519ZM34.3361 40.1H38.4981V39.9H34.3361V40.1ZM23.5124 -0.0694212C23.4846 -0.0405529 23.4597 0.00273168 23.4374 0.0476638C23.4137 0.0953309 23.3881 0.155165 23.3609 0.224855C23.3063 0.364406 23.2431 0.549226 23.1738 0.767372C23.0349 1.20399 22.8699 1.77968 22.6987 2.40583C22.3562 3.65841 21.9878 5.11699 21.7531 6.07797L21.9474 6.12542C22.1818 5.1655 22.5497 3.70882 22.8916 2.45858C23.0626 1.83331 23.2268 1.2607 23.3644 0.827967C23.4332 0.611438 23.4949 0.431321 23.5472 0.297655C23.5733 0.230737 23.5965 0.176893 23.6166 0.136559C23.6379 0.0934901 23.6515 0.0744512 23.6564 0.0694212L23.5124 -0.0694212ZM21.8055 6.01227C21.4153 6.20759 20.9421 6.61247 20.4545 7.12058C19.9648 7.63084 19.4534 8.25282 18.9868 8.89092C18.5202 9.52897 18.0971 10.185 17.7846 10.7639C17.4747 11.3377 17.2653 11.8505 17.2417 12.1966L17.4412 12.2102C17.4616 11.9116 17.6507 11.4329 17.9606 10.8589C18.2678 10.2898 18.6857 9.64151 19.1482 9.00897C19.6107 8.37648 20.1165 7.76163 20.5988 7.25907C21.0832 6.75435 21.5368 6.37041 21.895 6.19112L21.8055 6.01227ZM14.8143 24.0793C14.9209 25.0021 15.1753 25.7226 15.5907 26.2836C16.0065 26.8452 16.5778 27.239 17.3045 27.5177C18.7503 28.0722 20.8319 28.1775 23.5823 28.2356L23.5865 28.0356C20.8263 27.9773 18.7829 27.8705 17.3762 27.331C16.6766 27.0627 16.1398 26.6891 15.7514 26.1646C15.3626 25.6395 15.1168 24.9553 15.013 24.0563L14.8143 24.0793ZM23.5865 28.2356C26.6541 28.1725 28.8742 28.015 30.3539 27.4356C31.0973 27.1445 31.66 26.7448 32.0494 26.1925C32.4385 25.6405 32.6482 24.9452 32.7018 24.0739L32.5022 24.0617C32.4501 24.9079 32.2477 25.5641 31.8859 26.0772C31.5245 26.5899 30.9977 26.9687 30.2809 27.2494C28.8403 27.8135 26.6572 27.9724 23.5823 28.0356L23.5865 28.2356ZM32.7019 24.0654C32.5858 19.2498 32.3741 16.5673 30.2644 12.1602L30.084 12.2466C32.1758 16.6163 32.3862 19.2657 32.502 24.0702L32.7019 24.0654ZM30.2629 12.1573C28.7123 9.17335 27.6533 7.80479 25.3802 6.02299L25.2569 6.1804C27.5028 7.94094 28.5449 9.2851 30.0854 12.2495L30.2629 12.1573ZM25.4147 6.07436L23.6806 -0.0273381L23.4882 0.0273381L25.2224 6.12903L25.4147 6.07436ZM17.2517 12.1593C17.0057 12.6607 16.7629 13.2384 16.53 13.8634L16.7174 13.9332C16.9486 13.3127 17.1889 12.7414 17.4312 12.2474L17.2517 12.1593ZM16.53 13.8634C15.8465 15.6981 15.2458 17.9486 14.9018 19.8906C14.7298 20.8614 14.6215 21.7577 14.5996 22.4877C14.5887 22.8527 14.5993 23.1782 14.635 23.4519C14.6704 23.7239 14.7316 23.9523 14.827 24.1177L15.0003 24.0178C14.924 23.8856 14.8674 23.6872 14.8333 23.426C14.7994 23.1664 14.7888 22.8522 14.7995 22.4937C14.821 21.7768 14.9277 20.8909 15.0987 19.9254C15.4408 17.9947 16.0384 15.7559 16.7174 13.9332L16.53 13.8634ZM16.7032 13.959C17.5548 12.8447 18.2811 12.1469 19.1525 11.7827C20.0232 11.4188 21.0539 11.3818 22.5277 11.6241L22.5601 11.4267C21.0715 11.1821 19.9968 11.2131 19.0754 11.5982C18.1546 11.983 17.402 12.7151 16.5443 13.8376L16.7032 13.959ZM16.6014 13.9958C18.4316 14.4152 19.6628 14.457 20.5793 14.0593C21.5004 13.6595 22.0799 12.8265 22.6354 11.5657L22.4524 11.4851C21.9015 12.7354 21.3483 13.5075 20.4996 13.8758C19.6463 14.2462 18.4706 14.2189 16.6461 13.8008L16.6014 13.9958ZM9.10833 21.7369C9.78316 20.2778 10.4277 18.9307 11.0577 17.6719L10.8789 17.5824C10.2477 18.8434 9.6023 20.1924 8.92681 21.6529L9.10833 21.7369ZM11.0577 17.6719C14.7107 10.3731 17.8791 6.03887 23.6563 0.0695445L23.5125 -0.0695445C17.7225 5.9131 14.5418 10.2638 10.8789 17.5824L11.0577 17.6719ZM4.86358 14.337C6.67798 14.1919 7.94044 14.2477 8.86761 14.7198C9.78696 15.1879 10.3964 16.0768 10.8725 17.656L11.064 17.5982C10.5811 15.9968 9.94847 15.0457 8.95836 14.5415C7.97607 14.0414 6.66172 13.9925 4.84764 14.1376L4.86358 14.337ZM4.75954 14.265C5.18157 15.7262 5.90128 16.6226 6.94374 17.1364C7.97898 17.6467 9.32003 17.7731 10.9711 17.7271L10.9655 17.5272C9.32067 17.573 8.02132 17.4446 7.03216 16.9571C6.05022 16.473 5.36152 15.6285 4.95168 14.2095L4.75954 14.265ZM9.11377 39.9727C8.76995 38.7611 8.48388 37.6419 8.2543 36.5889L8.05889 36.6315C8.28954 37.6894 8.57669 38.8127 8.92137 40.0273L9.11377 39.9727ZM8.2543 36.5889C7.05498 31.0878 7.3944 27.3819 9.11325 21.724L8.92189 21.6658C7.19514 27.3497 6.85094 31.0908 8.05889 36.6315L8.2543 36.5889ZM0.0143307 32.9803C2.74998 32.5842 4.38319 32.747 5.51827 33.375C6.65274 34.0027 7.31004 35.1057 8.06675 36.6541L8.24644 36.5663C7.49061 35.0197 6.8104 33.8614 5.6151 33.2C4.42041 32.539 2.73158 32.3848 -0.0143307 32.7824L0.0143307 32.9803ZM-0.0928828 32.9184C0.635469 34.7443 1.47554 35.8616 2.76198 36.4337C4.04123 37.0025 5.74292 37.0228 8.1694 36.7093L8.14378 36.511C5.72009 36.8241 4.06766 36.7954 2.84325 36.2509C1.62604 35.7097 0.812897 34.6493 0.0928828 32.8443L-0.0928828 32.9184ZM13.2775 39.9799C12.8909 38.0926 12.6907 36.5308 12.6982 35.2548L12.4982 35.2537C12.4906 36.5495 12.6937 38.1266 13.0816 40.0201L13.2775 39.9799ZM12.6982 35.2548C12.7098 33.2828 13.2167 32.0123 14.2774 31.2683L14.1626 31.1046C13.0257 31.902 12.5099 33.2515 12.4982 35.2537L12.6982 35.2548ZM12.6791 35.313C13.8924 33.6404 14.8931 32.6128 16.0112 32.0963C17.1251 31.5817 18.3715 31.5675 20.0938 31.9619L20.1384 31.7669C18.3962 31.368 17.0987 31.3736 15.9273 31.9147C14.7601 32.4539 13.7342 33.5179 12.5172 35.1955L12.6791 35.313ZM12.5868 35.3536C14.5609 35.5801 16.1128 35.7304 17.3465 35.314C18.5947 34.8928 19.5004 33.8998 20.2104 31.8978L20.0219 31.831C19.3232 33.8011 18.4507 34.7303 17.2825 35.1245C16.0998 35.5237 14.5971 35.3829 12.6096 35.1549L12.5868 35.3536ZM23.5108 0.0676605C28.0533 5.0113 31.7173 9.4513 34.2522 13.3672L34.4201 13.2585C31.8762 9.32867 28.2034 4.87906 23.658 -0.0676605L23.5108 0.0676605ZM34.429 13.2758C34.1803 12.6519 33.9601 12.0084 33.9523 11.42C33.9447 10.8402 34.143 10.3154 34.7389 9.9134L34.627 9.74761C33.9678 10.1924 33.744 10.785 33.7523 11.4227C33.7606 12.0518 33.9945 12.7261 34.2432 13.3499L34.429 13.2758ZM34.2511 13.3656C35.8132 15.8823 37.1357 18.5402 38.4051 21.7319L38.591 21.658C37.3178 18.4569 35.9902 15.7882 34.4211 13.2601L34.2511 13.3656ZM34.6187 9.90718C34.8967 10.14 35.0778 10.3605 35.1802 10.5824C35.2818 10.8025 35.3089 11.0299 35.2689 11.2828C35.1875 11.798 34.8302 12.4119 34.2535 13.2565L34.4187 13.3692C34.9911 12.531 35.3769 11.8808 35.4665 11.314C35.512 11.026 35.4816 10.758 35.3618 10.4986C35.2429 10.2411 35.0389 9.99814 34.7471 9.75384L34.6187 9.90718ZM34.4178 13.3705C35.0522 12.4711 35.5883 11.868 36.2466 11.4876C36.903 11.1082 37.6922 10.944 38.8446 10.9475L38.8452 10.7475C37.6744 10.744 36.8455 10.9104 36.1465 11.3144C35.4493 11.7173 34.8926 12.3503 34.2544 13.2552L34.4178 13.3705ZM38.7489 10.8193C38.4245 11.9258 38.0293 12.5912 37.3801 12.9502C36.7252 13.3123 35.7894 13.3759 34.3473 13.2135L34.3249 13.4122C35.7709 13.5751 36.7628 13.5201 37.4769 13.1252C38.1967 12.7272 38.6119 11.9972 38.9408 10.8756L38.7489 10.8193Z"
		fill="#3DC44B" mask="url(#path-1-inside-1_104_1047)" />
	<circle cx="23.7288" cy="22.0339" r="5.42373" fill="#3DC44B" />
</svg>