<?xml version="1.0" standalone="no"?>
<!DOCTYPE svg PUBLIC "-//W3C//DTD SVG 20010904//EN"
 "http://www.w3.org/TR/2001/REC-SVG-20010904/DTD/svg10.dtd">
<svg version="1.0" xmlns="http://www.w3.org/2000/svg"
 width="700.000000pt" height="700.000000pt" viewBox="0 0 700.000000 700.000000"
 preserveAspectRatio="xMidYMid meet">
<metadata>
Created by potrace 1.14, written by Peter Selinger 2001-2017
</metadata>
<g transform="translate(0.000000,700.000000) scale(0.100000,-0.100000)"
fill="#000000" stroke="none">
<path d="M4005 6874 c-66 -70 -125 -132 -130 -138 -6 -6 -42 -45 -80 -86 -39
-41 -106 -115 -150 -164 -44 -49 -84 -94 -90 -100 -29 -32 -145 -168 -175
-205 -19 -24 -42 -51 -51 -60 -54 -55 -379 -478 -501 -651 -45 -65 -192 -285
-260 -390 -163 -253 -391 -655 -575 -1017 -38 -73 -71 -133 -74 -133 -3 0 -13
27 -23 61 -27 88 -91 215 -143 284 -106 139 -255 217 -458 239 -60 7 -314 8
-370 1 -16 -2 -40 -3 -53 -4 -19 -1 -21 -5 -16 -28 13 -54 66 -173 103 -230
157 -239 393 -336 823 -338 71 0 128 -3 128 -6 0 -4 -44 -98 -99 -210 -214
-443 -237 -497 -295 -706 -93 -331 -142 -557 -180 -838 -38 -274 -42 -698 -11
-960 13 -109 23 -183 41 -290 15 -92 41 -234 50 -270 3 -11 -19 25 -48 80
-140 262 -257 393 -421 474 -196 96 -495 120 -865 69 -97 -13 -95 -1 -21 -153
162 -336 359 -488 689 -535 133 -19 420 -12 631 16 l45 6 18 -78 c9 -44 42
-177 73 -296 l57 -218 369 0 c346 0 368 1 363 18 -17 54 -71 389 -81 502 -4
41 -8 85 -10 98 -2 12 -5 64 -6 115 l-2 92 49 -4 c27 -1 108 -9 179 -17 161
-16 424 -11 520 10 234 52 399 211 526 506 22 50 39 94 39 98 0 9 -135 37
-225 48 -82 9 -246 7 -310 -5 -74 -14 -177 -50 -241 -86 -136 -75 -302 -233
-452 -427 -82 -106 -95 -121 -87 -96 2 7 6 54 9 103 14 244 99 442 238 556 29
24 69 58 88 76 71 67 238 135 390 158 25 4 53 9 64 11 10 2 51 6 90 9 39 4 91
8 116 11 79 9 1841 12 1940 3 169 -14 213 -20 306 -39 200 -41 286 -88 389
-211 85 -102 117 -148 174 -248 45 -80 94 -210 106 -281 4 -25 9 -54 11 -65
16 -77 -5 -327 -40 -490 -38 -173 -62 -299 -72 -387 l-7 -58 366 0 c340 0 366
1 371 18 75 257 125 459 165 662 31 156 35 181 45 255 3 22 10 72 15 110 21
149 26 260 25 540 0 261 -12 451 -39 605 -2 14 -6 43 -10 65 -42 291 -176 870
-235 1021 -32 81 -73 177 -116 272 -13 29 -24 54 -24 57 0 7 -63 141 -165 350
-102 209 -231 446 -338 622 l-56 93 57 -7 c91 -11 282 -7 347 7 146 30 244
108 313 250 23 47 48 106 56 133 16 53 19 50 -59 48 -246 -8 -387 -65 -547
-223 -55 -54 -91 -86 -80 -70 87 122 116 266 72 352 -21 40 -86 120 -99 120
-3 0 -22 -15 -42 -32 -123 -112 -136 -260 -45 -523 9 -25 16 -35 -123 168
-105 154 -339 472 -460 626 -71 90 -429 529 -446 547 -5 6 -30 35 -55 64 -80
95 -172 203 -255 295 -72 81 -161 183 -212 241 -26 31 -177 196 -248 271 l-60
64 -120 -127z m186 -104 c10 -36 60 -209 109 -385 50 -176 100 -350 111 -387
19 -64 22 -69 112 -143 195 -161 365 -347 494 -540 204 -304 407 -733 513
-1085 37 -124 101 -412 114 -520 13 -96 25 -219 32 -300 3 -47 8 -105 10 -130
2 -25 6 -164 9 -310 4 -242 3 -272 -15 -340 -84 -318 -328 -463 -870 -516 -36
-3 -76 -8 -90 -10 -63 -10 -361 -19 -605 -19 -784 0 -1133 73 -1328 279 -80
85 -146 223 -162 343 -4 27 -16 80 -28 118 -24 82 -28 278 -8 430 6 50 14 108
17 130 3 22 7 47 9 55 2 8 7 35 10 60 3 25 8 52 10 60 2 8 7 31 10 50 36 209
153 643 237 877 l29 81 32 -9 c187 -51 497 -62 611 -20 151 54 243 149 352
358 29 56 39 85 31 88 -35 11 -193 25 -286 25 -174 0 -299 -36 -424 -121 -87
-58 -136 -104 -233 -215 -41 -47 -74 -82 -74 -80 0 3 27 67 59 143 33 76 62
154 66 173 19 99 175 365 348 594 100 133 316 356 387 400 l46 28 47 192 c91
361 202 754 238 841 12 30 12 30 36 -50 14 -44 33 -109 44 -145z"/>
<path d="M4175 4094 c-5 -1 -48 -5 -95 -7 -134 -8 -240 -37 -360 -100 -179
-93 -313 -225 -406 -401 -131 -250 -145 -547 -37 -806 20 -47 42 -92 49 -101
8 -8 14 -19 14 -24 0 -5 24 -40 54 -79 125 -164 276 -271 471 -334 336 -110
702 -22 957 231 115 115 206 274 250 437 19 71 23 110 23 240 0 176 -16 248
-86 398 -118 254 -367 459 -631 518 -10 2 -28 6 -40 9 -13 3 -48 8 -78 11 -30
3 -59 7 -65 8 -5 2 -14 2 -20 0z"/>
</g>
</svg>
